{
	"asset":{
		"version":"2.0",
		"generator":"Created using the official Cinema 4D glTF Exporter 1.000x290161"
	},
	"scenes":[{
		"nodes":[0,
		1,
		2,
		3,
		4,
		5]
	}],
	"nodes":[{
		"name":"WheelBR",
		"translation":[-8.253,
		3.743,
		-3.834],
		"rotation":[0,
		0,
		0,
		-1],
		"scale":[1,
		1,
		1],
		"mesh":0
	},
	{
		"name":"WheelBL",
		"translation":[-8.425,
		3.743,
		3.822],
		"rotation":[0,
		0,
		0,
		-1],
		"scale":[1,
		1,
		1],
		"mesh":1
	},
	{
		"name":"WheelTL",
		"translation":[8.329,
		3.743,
		3.788],
		"rotation":[0,
		0,
		0,
		-1],
		"scale":[1,
		1,
		1],
		"mesh":2
	},
	{
		"name":"WheelTR",
		"translation":[8.295,
		3.743,
		-3.868],
		"rotation":[0,
		0,
		0,
		-1],
		"scale":[1,
		1,
		1],
		"mesh":3
	},
	{
		"name":"Shape",
		"translation":[0,
		7.635,
		0.003],
		"rotation":[0,
		0,
		0,
		-1],
		"scale":[1,
		1,
		1],
		"mesh":4
	},
	{
		"name":"Roof",
		"translation":[0.054,
		8.24,
		0.09],
		"rotation":[0,
		0,
		0,
		-1],
		"scale":[1,
		1,
		1],
		"mesh":5
	}],
	"meshes":[{
		"primitives":[{
			"attributes":{
				"POSITION":1,
				"NORMAL":2,
				"TEXCOORD_0":3
			},
			"indices":0,
			"material":0
		}]
	},
	{
		"primitives":[{
			"attributes":{
				"POSITION":5,
				"NORMAL":6,
				"TEXCOORD_0":7
			},
			"indices":4,
			"material":0
		}]
	},
	{
		"primitives":[{
			"attributes":{
				"POSITION":9,
				"NORMAL":10,
				"TEXCOORD_0":11
			},
			"indices":8,
			"material":0
		}]
	},
	{
		"primitives":[{
			"attributes":{
				"POSITION":13,
				"NORMAL":14,
				"TEXCOORD_0":15
			},
			"indices":12,
			"material":0
		}]
	},
	{
		"primitives":[{
			"attributes":{
				"POSITION":17,
				"NORMAL":18,
				"TEXCOORD_0":19
			},
			"indices":16,
			"material":1
		}]
	},
	{
		"primitives":[{
			"attributes":{
				"POSITION":21,
				"NORMAL":22,
				"TEXCOORD_0":23
			},
			"indices":20,
			"material":2
		}]
	}],
	"accessors":[{
		"bufferView":0,
		"type":"SCALAR",
		"componentType":5123,
		"count":3672,
		"byteOffset":0,
		"min":[0],
		"max":[848]
	},
	{
		"bufferView":1,
		"type":"VEC3",
		"componentType":5126,
		"count":849,
		"byteOffset":0,
		"min":[-3.945,
		-3.8,
		-1.67],
		"max":[3.655,
		3.8,
		1.63]
	},
	{
		"bufferView":1,
		"type":"VEC3",
		"componentType":5126,
		"count":849,
		"byteOffset":12,
		"min":[-1,
		-1,
		-1],
		"max":[1,
		1,
		1]
	},
	{
		"bufferView":1,
		"type":"VEC2",
		"componentType":5126,
		"count":849,
		"byteOffset":24,
		"min":[0,
		0],
		"max":[1,
		1]
	},
	{
		"bufferView":2,
		"type":"SCALAR",
		"componentType":5123,
		"count":3672,
		"byteOffset":0,
		"min":[0],
		"max":[848]
	},
	{
		"bufferView":3,
		"type":"VEC3",
		"componentType":5126,
		"count":849,
		"byteOffset":0,
		"min":[-3.773,
		-3.8,
		-1.664],
		"max":[3.827,
		3.8,
		1.636]
	},
	{
		"bufferView":3,
		"type":"VEC3",
		"componentType":5126,
		"count":849,
		"byteOffset":12,
		"min":[-1,
		-1,
		-1],
		"max":[1,
		1,
		1]
	},
	{
		"bufferView":3,
		"type":"VEC2",
		"componentType":5126,
		"count":849,
		"byteOffset":24,
		"min":[0,
		0],
		"max":[1,
		1]
	},
	{
		"bufferView":4,
		"type":"SCALAR",
		"componentType":5123,
		"count":3672,
		"byteOffset":0,
		"min":[0],
		"max":[848]
	},
	{
		"bufferView":5,
		"type":"VEC3",
		"componentType":5126,
		"count":849,
		"byteOffset":0,
		"min":[-3.827,
		-3.8,
		-1.63],
		"max":[3.773,
		3.8,
		1.67]
	},
	{
		"bufferView":5,
		"type":"VEC3",
		"componentType":5126,
		"count":849,
		"byteOffset":12,
		"min":[-1,
		-1,
		-1],
		"max":[1,
		1,
		1]
	},
	{
		"bufferView":5,
		"type":"VEC2",
		"componentType":5126,
		"count":849,
		"byteOffset":24,
		"min":[0,
		0],
		"max":[1,
		1]
	},
	{
		"bufferView":6,
		"type":"SCALAR",
		"componentType":5123,
		"count":3672,
		"byteOffset":0,
		"min":[0],
		"max":[848]
	},
	{
		"bufferView":7,
		"type":"VEC3",
		"componentType":5126,
		"count":849,
		"byteOffset":0,
		"min":[-3.793,
		-3.8,
		-1.636],
		"max":[3.807,
		3.8,
		1.664]
	},
	{
		"bufferView":7,
		"type":"VEC3",
		"componentType":5126,
		"count":849,
		"byteOffset":12,
		"min":[-1,
		-1,
		-1],
		"max":[1,
		1,
		1]
	},
	{
		"bufferView":7,
		"type":"VEC2",
		"componentType":5126,
		"count":849,
		"byteOffset":24,
		"min":[0,
		0],
		"max":[1,
		1]
	},
	{
		"bufferView":8,
		"type":"SCALAR",
		"componentType":5123,
		"count":5292,
		"byteOffset":0,
		"min":[0],
		"max":[1657]
	},
	{
		"bufferView":9,
		"type":"VEC3",
		"componentType":5126,
		"count":1658,
		"byteOffset":0,
		"min":[-8.538,
		-3.897,
		-5.787],
		"max":[8.538,
		3.897,
		5.787]
	},
	{
		"bufferView":9,
		"type":"VEC3",
		"componentType":5126,
		"count":1658,
		"byteOffset":12,
		"min":[-0.999,
		-1,
		-1],
		"max":[0.996,
		0.999,
		1]
	},
	{
		"bufferView":9,
		"type":"VEC2",
		"componentType":5126,
		"count":1658,
		"byteOffset":24,
		"min":[0,
		0],
		"max":[1,
		1]
	},
	{
		"bufferView":10,
		"type":"SCALAR",
		"componentType":5123,
		"count":4080,
		"byteOffset":0,
		"min":[0],
		"max":[804]
	},
	{
		"bufferView":11,
		"type":"VEC3",
		"componentType":5126,
		"count":805,
		"byteOffset":0,
		"min":[-5.89,
		-3.097,
		-5.3],
		"max":[5.666,
		7.263,
		5.21]
	},
	{
		"bufferView":11,
		"type":"VEC3",
		"componentType":5126,
		"count":805,
		"byteOffset":12,
		"min":[-0.972,
		-0.992,
		-1],
		"max":[0.999,
		0.898,
		1]
	},
	{
		"bufferView":11,
		"type":"VEC2",
		"componentType":5126,
		"count":805,
		"byteOffset":24,
		"min":[0,
		0],
		"max":[1,
		1]
	}],
	"bufferViews":[{
		"buffer":0,
		"byteOffset":0,
		"byteLength":7344,
		"target":34963
	},
	{
		"buffer":0,
		"byteOffset":7344,
		"byteLength":27168,
		"target":34962,
		"byteStride":32
	},
	{
		"buffer":1,
		"byteOffset":0,
		"byteLength":7344,
		"target":34963
	},
	{
		"buffer":1,
		"byteOffset":7344,
		"byteLength":27168,
		"target":34962,
		"byteStride":32
	},
	{
		"buffer":2,
		"byteOffset":0,
		"byteLength":7344,
		"target":34963
	},
	{
		"buffer":2,
		"byteOffset":7344,
		"byteLength":27168,
		"target":34962,
		"byteStride":32
	},
	{
		"buffer":3,
		"byteOffset":0,
		"byteLength":7344,
		"target":34963
	},
	{
		"buffer":3,
		"byteOffset":7344,
		"byteLength":27168,
		"target":34962,
		"byteStride":32
	},
	{
		"buffer":4,
		"byteOffset":0,
		"byteLength":10584,
		"target":34963
	},
	{
		"buffer":4,
		"byteOffset":10584,
		"byteLength":53056,
		"target":34962,
		"byteStride":32
	},
	{
		"buffer":5,
		"byteOffset":0,
		"byteLength":8160,
		"target":34963
	},
	{
		"buffer":5,
		"byteOffset":8160,
		"byteLength":25760,
		"target":34962,
		"byteStride":32
	}],
	"buffers":[{
		"uri":"data:application/octet-stream;base64,",
		"byteLength":34512
	},
	{
		"uri":"data:application/octet-stream;base64,",
		"byteLength":34512
	},
	{
		"uri":"data:application/octet-stream;base64,",
		"byteLength":34512
	},
	{
		"uri":"data:application/octet-stream;base64,",
		"byteLength":34512
	},
	{
		"uri":"data:application/octet-stream;base64,",
		"byteLength":63640
	},
	{
		"uri":"data:application/octet-stream;base64,",
		"byteLength":33920
	}],
	"materials":[{
		"pbrMetallicRoughness":{
			"baseColorFactor":[0.8,
			0.8,
			0.8,
			1],
			"metallicFactor":0,
			"roughnessFactor":0.5
		},
		"emissiveFactor":[0,
		0,
		0],
		"alphaMode":"OPAQUE",
		"doubleSided":true,
		"name":"Wheel"
	},
	{
		"pbrMetallicRoughness":{
			"baseColorFactor":[0.8,
			0.8,
			0.8,
			1],
			"metallicFactor":0,
			"roughnessFactor":0.5
		},
		"emissiveFactor":[0,
		0,
		0],
		"alphaMode":"OPAQUE",
		"doubleSided":true,
		"name":"Shape"
	},
	{
		"pbrMetallicRoughness":{
			"baseColorFactor":[0,
			0,
			0,
			1],
			"metallicFactor":0,
			"roughnessFactor":0.5
		},
		"emissiveFactor":[0,
		0,
		0],
		"alphaMode":"OPAQUE",
		"doubleSided":true,
		"name":"Roof"
	}]
}