{
    "asset" : {
        "generator" : "Khronos glTF Blender I/O v1.1.46",
        "version" : "2.0"
    },
    "scene" : 0,
    "scenes" : [
        {
            "extras" : {
                "glTF2ExportSettings" : {
                    "export_animations" : 0,
                    "export_apply" : 1,
                    "export_extras" : 1,
                    "export_format" : "GLTF_EMBEDDED",
                    "export_morph" : 0,
                    "export_skins" : 0
                }
            },
            "name" : "Scene",
            "nodes" : [
                0,
                1,
                2,
                3,
                5,
                6
            ]
        }
    ],
    "nodes" : [
        {
            "extras" : {
                "data" : "wheel",
                "drive" : "true"
            },
            "mesh" : 0,
            "name" : "WheelBR",
            "scale" : [
                0.16864728927612305,
                0.16864730417728424,
                0.16864730417728424
            ],
            "translation" : [
                -0.6906063556671143,
                0.6365526914596558,
                1.3769972324371338
            ]
        },
        {
            "extras" : {
                "data" : "wheel",
                "drive" : "true"
            },
            "mesh" : 1,
            "name" : "WheelBL",
            "scale" : [
                0.16864728927612305,
                0.16864730417728424,
                0.16864730417728424
            ],
            "translation" : [
                0.6295097470283508,
                0.6376522779464722,
                1.4059979915618896
            ]
        },
        {
            "extras" : {
                "data" : "wheel",
                "steering" : "true"
            },
            "mesh" : 2,
            "name" : "WheelTL",
            "scale" : [
                0.16864728927612305,
                0.16864730417728424,
                0.16864730417728424
            ],
            "translation" : [
                0.6359710097312927,
                0.6399999856948853,
                -1.4195153713226318
            ]
        },
        {
            "extras" : {
                "data" : "wheel",
                "steering" : "true"
            },
            "mesh" : 3,
            "name" : "WheelTR",
            "scale" : [
                0.16864728927612305,
                0.16864730417728424,
                0.16864730417728424
            ],
            "translation" : [
                -0.6494064927101135,
                0.6399999856948853,
                -1.413778305053711
            ]
        },
        {
            "extras" : {
                "envMap" : "true"
            },
            "mesh" : 4,
            "name" : "Roof",
            "translation" : [
                0.3399280309677124,
                0,
                0.09000220894813538
            ]
        },
        {
            "children" : [
                4
            ],
            "mesh" : 5,
            "name" : "body",
            "rotation" : [
                0.5000000596046448,
                0.49999991059303284,
                -0.4999999701976776,
                0.4999999701976776
            ],
            "scale" : [
                0.16864728927612305,
                0.16864730417728424,
                0.16864730417728424
            ],
            "translation" : [
                -0.00845875684171915,
                1.32612144947052,
                -0.014854222536087036
            ]
        },
        {
            "extras" : {
                "data" : "collision",
                "shape" : "box"
            },
            "mesh" : 6,
            "name" : "Cube",
            "rotation" : [
                0,
                0.7071067690849304,
                0,
                0.7071068286895752
            ],
            "scale" : [
                1.75,
                1,
                1
            ],
            "translation" : [
                0.005832720547914505,
                1.5368235111236572,
                -0.02383297309279442
            ]
        }
    ],
    "materials" : [
        {
            "doubleSided" : true,
            "emissiveFactor" : [
                0,
                0,
                0
            ],
            "name" : "Wheel",
            "pbrMetallicRoughness" : {
                "baseColorFactor" : [
                    0.02197938784956932,
                    0.02197938784956932,
                    0.02197938784956932,
                    1
                ],
                "metallicFactor" : 0.5,
                "roughnessFactor" : 0.6500000357627869
            }
        },
        {
            "doubleSided" : true,
            "emissiveFactor" : [
                0,
                0,
                0
            ],
            "name" : "Roof",
            "pbrMetallicRoughness" : {
                "baseColorFactor" : [
                    0,
                    0,
                    0,
                    1
                ],
                "metallicFactor" : 0.5,
                "roughnessFactor" : 0.30000001192092896
            }
        },
        {
            "doubleSided" : true,
            "emissiveFactor" : [
                0,
                0,
                0
            ],
            "name" : "Shape",
            "pbrMetallicRoughness" : {
                "baseColorFactor" : [
                    0.800000011920929,
                    0.800000011920929,
                    0.800000011920929,
                    1
                ],
                "metallicFactor" : 0,
                "roughnessFactor" : 0.5
            }
        }
    ],
    "meshes" : [
        {
            "name" : "Mesh_0",
            "primitives" : [
                {
                    "attributes" : {
                        "POSITION" : 0,
                        "NORMAL" : 1,
                        "TEXCOORD_0" : 2
                    },
                    "indices" : 3,
                    "material" : 0
                }
            ]
        },
        {
            "name" : "Mesh_1",
            "primitives" : [
                {
                    "attributes" : {
                        "POSITION" : 4,
                        "NORMAL" : 5,
                        "TEXCOORD_0" : 6
                    },
                    "indices" : 7,
                    "material" : 0
                }
            ]
        },
        {
            "name" : "Mesh_2",
            "primitives" : [
                {
                    "attributes" : {
                        "POSITION" : 8,
                        "NORMAL" : 9,
                        "TEXCOORD_0" : 10
                    },
                    "indices" : 11,
                    "material" : 0
                }
            ]
        },
        {
            "name" : "Mesh_3",
            "primitives" : [
                {
                    "attributes" : {
                        "POSITION" : 12,
                        "NORMAL" : 13,
                        "TEXCOORD_0" : 14
                    },
                    "indices" : 15,
                    "material" : 0
                }
            ]
        },
        {
            "name" : "Mesh_5",
            "primitives" : [
                {
                    "attributes" : {
                        "POSITION" : 16,
                        "NORMAL" : 17,
                        "TEXCOORD_0" : 18
                    },
                    "indices" : 19,
                    "material" : 1
                }
            ]
        },
        {
            "name" : "Mesh_4",
            "primitives" : [
                {
                    "attributes" : {
                        "POSITION" : 20,
                        "NORMAL" : 21,
                        "TEXCOORD_0" : 22
                    },
                    "indices" : 23,
                    "material" : 2
                }
            ]
        },
        {
            "name" : "Cube",
            "primitives" : [
                {
                    "attributes" : {
                        "POSITION" : 24,
                        "NORMAL" : 25,
                        "TEXCOORD_0" : 26
                    },
                    "indices" : 27
                }
            ]
        }
    ],
    "accessors" : [
        {
            "bufferView" : 0,
            "componentType" : 5126,
            "count" : 1277,
            "max" : [
                1.6500006914138794,
                3.799999952316284,
                3.736875534057617
            ],
            "min" : [
                -1.6500003337860107,
                -3.8000004291534424,
                -3.8631248474121094
            ],
            "type" : "VEC3"
        },
        {
            "bufferView" : 1,
            "componentType" : 5126,
            "count" : 1277,
            "type" : "VEC3"
        },
        {
            "bufferView" : 2,
            "componentType" : 5126,
            "count" : 1277,
            "type" : "VEC2"
        },
        {
            "bufferView" : 3,
            "componentType" : 5123,
            "count" : 3672,
            "type" : "SCALAR"
        },
        {
            "bufferView" : 4,
            "componentType" : 5126,
            "count" : 1277,
            "max" : [
                1.650000810623169,
                3.8000004291534424,
                3.863124132156372
            ],
            "min" : [
                -1.6500006914138794,
                -3.8000001907348633,
                -3.73687481880188
            ],
            "type" : "VEC3"
        },
        {
            "bufferView" : 5,
            "componentType" : 5126,
            "count" : 1277,
            "type" : "VEC3"
        },
        {
            "bufferView" : 6,
            "componentType" : 5126,
            "count" : 1277,
            "type" : "VEC2"
        },
        {
            "bufferView" : 7,
            "componentType" : 5123,
            "count" : 3672,
            "type" : "SCALAR"
        },
        {
            "bufferView" : 8,
            "componentType" : 5126,
            "count" : 1277,
            "max" : [
                1.6500006914138794,
                3.799999952316284,
                3.73687481880188
            ],
            "min" : [
                -1.6500004529953003,
                -3.799999952316284,
                -3.863124370574951
            ],
            "type" : "VEC3"
        },
        {
            "bufferView" : 9,
            "componentType" : 5126,
            "count" : 1277,
            "type" : "VEC3"
        },
        {
            "bufferView" : 10,
            "componentType" : 5126,
            "count" : 1277,
            "type" : "VEC2"
        },
        {
            "bufferView" : 11,
            "componentType" : 5123,
            "count" : 3672,
            "type" : "SCALAR"
        },
        {
            "bufferView" : 12,
            "componentType" : 5126,
            "count" : 1273,
            "max" : [
                1.6500006914138794,
                3.799999952316284,
                3.736875295639038
            ],
            "min" : [
                -1.6500005722045898,
                -3.799999952316284,
                -3.863124132156372
            ],
            "type" : "VEC3"
        },
        {
            "bufferView" : 13,
            "componentType" : 5126,
            "count" : 1273,
            "type" : "VEC3"
        },
        {
            "bufferView" : 14,
            "componentType" : 5126,
            "count" : 1273,
            "type" : "VEC2"
        },
        {
            "bufferView" : 15,
            "componentType" : 5123,
            "count" : 3672,
            "type" : "SCALAR"
        },
        {
            "bufferView" : 16,
            "componentType" : 5126,
            "count" : 812,
            "max" : [
                5.665893077850342,
                5.210211753845215,
                3.097493886947632
            ],
            "min" : [
                -5.889873504638672,
                -5.30029296875,
                -7.263494968414307
            ],
            "type" : "VEC3"
        },
        {
            "bufferView" : 17,
            "componentType" : 5126,
            "count" : 812,
            "type" : "VEC3"
        },
        {
            "bufferView" : 18,
            "componentType" : 5126,
            "count" : 812,
            "type" : "VEC2"
        },
        {
            "bufferView" : 19,
            "componentType" : 5123,
            "count" : 4080,
            "type" : "SCALAR"
        },
        {
            "bufferView" : 20,
            "componentType" : 5126,
            "count" : 1780,
            "max" : [
                8.538366317749023,
                5.786962032318115,
                3.896585464477539
            ],
            "min" : [
                -8.538366317749023,
                -5.786962032318115,
                -3.896585464477539
            ],
            "type" : "VEC3"
        },
        {
            "bufferView" : 21,
            "componentType" : 5126,
            "count" : 1780,
            "type" : "VEC3"
        },
        {
            "bufferView" : 22,
            "componentType" : 5126,
            "count" : 1780,
            "type" : "VEC2"
        },
        {
            "bufferView" : 23,
            "componentType" : 5123,
            "count" : 5292,
            "type" : "SCALAR"
        },
        {
            "bufferView" : 24,
            "componentType" : 5126,
            "count" : 24,
            "max" : [
                1,
                1,
                1
            ],
            "min" : [
                -1,
                -1,
                -1
            ],
            "type" : "VEC3"
        },
        {
            "bufferView" : 25,
            "componentType" : 5126,
            "count" : 24,
            "type" : "VEC3"
        },
        {
            "bufferView" : 26,
            "componentType" : 5126,
            "count" : 24,
            "type" : "VEC2"
        },
        {
            "bufferView" : 27,
            "componentType" : 5123,
            "count" : 36,
            "type" : "SCALAR"
        }
    ],
    "bufferViews" : [
        {
            "buffer" : 0,
            "byteLength" : 15324,
            "byteOffset" : 0
        },
        {
            "buffer" : 0,
            "byteLength" : 15324,
            "byteOffset" : 15324
        },
        {
            "buffer" : 0,
            "byteLength" : 10216,
            "byteOffset" : 30648
        },
        {
            "buffer" : 0,
            "byteLength" : 7344,
            "byteOffset" : 40864
        },
        {
            "buffer" : 0,
            "byteLength" : 15324,
            "byteOffset" : 48208
        },
        {
            "buffer" : 0,
            "byteLength" : 15324,
            "byteOffset" : 63532
        },
        {
            "buffer" : 0,
            "byteLength" : 10216,
            "byteOffset" : 78856
        },
        {
            "buffer" : 0,
            "byteLength" : 7344,
            "byteOffset" : 89072
        },
        {
            "buffer" : 0,
            "byteLength" : 15324,
            "byteOffset" : 96416
        },
        {
            "buffer" : 0,
            "byteLength" : 15324,
            "byteOffset" : 111740
        },
        {
            "buffer" : 0,
            "byteLength" : 10216,
            "byteOffset" : 127064
        },
        {
            "buffer" : 0,
            "byteLength" : 7344,
            "byteOffset" : 137280
        },
        {
            "buffer" : 0,
            "byteLength" : 15276,
            "byteOffset" : 144624
        },
        {
            "buffer" : 0,
            "byteLength" : 15276,
            "byteOffset" : 159900
        },
        {
            "buffer" : 0,
            "byteLength" : 10184,
            "byteOffset" : 175176
        },
        {
            "buffer" : 0,
            "byteLength" : 7344,
            "byteOffset" : 185360
        },
        {
            "buffer" : 0,
            "byteLength" : 9744,
            "byteOffset" : 192704
        },
        {
            "buffer" : 0,
            "byteLength" : 9744,
            "byteOffset" : 202448
        },
        {
            "buffer" : 0,
            "byteLength" : 6496,
            "byteOffset" : 212192
        },
        {
            "buffer" : 0,
            "byteLength" : 8160,
            "byteOffset" : 218688
        },
        {
            "buffer" : 0,
            "byteLength" : 21360,
            "byteOffset" : 226848
        },
        {
            "buffer" : 0,
            "byteLength" : 21360,
            "byteOffset" : 248208
        },
        {
            "buffer" : 0,
            "byteLength" : 14240,
            "byteOffset" : 269568
        },
        {
            "buffer" : 0,
            "byteLength" : 10584,
            "byteOffset" : 283808
        },
        {
            "buffer" : 0,
            "byteLength" : 288,
            "byteOffset" : 294392
        },
        {
            "buffer" : 0,
            "byteLength" : 288,
            "byteOffset" : 294680
        },
        {
            "buffer" : 0,
            "byteLength" : 192,
            "byteOffset" : 294968
        },
        {
            "buffer" : 0,
            "byteLength" : 72,
            "byteOffset" : 295160
        }
    ],
    "buffers" : [
        {
            "byteLength" : 295232,
            "uri" : "data:application/octet-stream;base64,"
        }
    ]
}
